<svg id="Layer_1" data-name="Layer 1" xmlns="http://www.w3.org/2000/svg" viewBox="0 0 273.29 900"><defs><style>.cls-1{fill:#fff;}</style></defs><path class="cls-1" d="M475.5,985.5c-72.87,0-132.15-59.28-132.15-132.15V94.5h264.3V853.35C607.65,926.22,548.37,985.5,475.5,985.5Z" transform="translate(-338.85 -90)"/><path d="M603.15,99V853.35a127.65,127.65,0,0,1-255.3,0V99h255.3m9-9H338.85V853.35A136.65,136.65,0,0,0,475.5,990h0A136.65,136.65,0,0,0,612.15,853.35V90Z" transform="translate(-338.85 -90)"/><path class="cls-1" d="M475.5,952.5A106.94,106.94,0,0,1,368.68,845.68V299.5H582.32V845.68A106.94,106.94,0,0,1,475.5,952.5Z" transform="translate(-338.85 -90)"/><path d="M579.82,302V845.68a104.32,104.32,0,0,1-208.64,0V302H579.82m5-5H366.18V845.68A109.32,109.32,0,0,0,475.5,955h0A109.32,109.32,0,0,0,584.82,845.68V297Z" transform="translate(-338.85 -90)"/></svg>